<?xml version="1.0" encoding="UTF-8" standalone="no"?>
<!-- Created with Inkscape (http://www.inkscape.org/) -->

<svg
   width="512"
   height="512"
   viewBox="0 0 135.46666 135.46667"
   version="1.1"
   id="svg1"
   inkscape:version="1.4 (e7c3feb1, 2024-10-09)"
   sodipodi:docname="favicon.svg"
   xmlns:inkscape="http://www.inkscape.org/namespaces/inkscape"
   xmlns:sodipodi="http://sodipodi.sourceforge.net/DTD/sodipodi-0.dtd"
   xmlns="http://www.w3.org/2000/svg"
   xmlns:svg="http://www.w3.org/2000/svg">
  <sodipodi:namedview
     id="namedview1"
     pagecolor="#505050"
     bordercolor="#eeeeee"
     borderopacity="1"
     inkscape:showpageshadow="0"
     inkscape:pageopacity="0"
     inkscape:pagecheckerboard="0"
     inkscape:deskcolor="#505050"
     inkscape:document-units="mm"
     showguides="true"
     inkscape:zoom="0.81738281"
     inkscape:cx="256.91756"
     inkscape:cy="255.08244"
     inkscape:window-width="1728"
     inkscape:window-height="1056"
     inkscape:window-x="0"
     inkscape:window-y="33"
     inkscape:window-maximized="1"
     inkscape:current-layer="layer1">
    <sodipodi:guide
       position="8.4666666,146.95786"
       orientation="-1,0"
       id="guide2"
       inkscape:locked="false"
       inkscape:label=""
       inkscape:color="rgb(0,134,229)" />
    <sodipodi:guide
       position="127,152.94624"
       orientation="-1,0"
       id="guide3"
       inkscape:locked="false"
       inkscape:label=""
       inkscape:color="rgb(0,134,229)" />
  </sodipodi:namedview>
  <defs
     id="defs1" />
  <g
     inkscape:label="Layer 1"
     inkscape:groupmode="layer"
     id="layer1">
    <rect
       style="fill:#000000;stroke-width:0.25;stroke-linecap:square;paint-order:markers fill stroke"
       id="rect1"
       width="135.46666"
       height="135.46666"
       x="0"
       y="0" />
    <g
       id="text1"
       style="font-weight:bold;font-size:58.8928px;line-height:65.1066px;font-family:Helvetica;-inkscape-font-specification:'Helvetica Bold';letter-spacing:0px;stroke-width:2.08675;stroke-linecap:square;paint-order:markers fill stroke"
       aria-label="sec&#10;rets.">
      <path
         style="fill:#ffffff"
         d="m 31.989351,20.859423 q 3.6808,2.358012 4.227169,8.109262 h -8.195531 q -0.172538,-1.581593 -0.891444,-2.501793 -1.351544,-1.667863 -4.601,-1.667863 -2.674331,0 -3.824581,0.833931 -1.121494,0.833932 -1.121494,1.955425 0,1.409057 1.207763,2.041694 1.207762,0.661394 8.540606,2.271744 4.888562,1.15025 7.332844,3.479506 2.415525,2.358012 2.415525,5.895031 0,4.658513 -3.479507,7.620406 -3.45075,2.933138 -10.697324,2.933138 -7.390357,0 -10.927375,-3.105675 -3.5082628,-3.134431 -3.5082628,-7.965481 h 8.3105558 q 0.258807,2.185475 1.121494,3.105675 1.524081,1.639106 5.636225,1.639106 2.415525,0 3.824581,-0.718906 1.437813,-0.718907 1.437813,-2.156719 0,-1.3803 -1.15025,-2.099206 -1.15025,-0.718907 -8.540606,-2.473038 -5.319907,-1.322787 -7.505382,-3.306969 -2.1854746,-1.955425 -2.1854746,-5.636224 0,-4.342194 3.3932376,-7.447869 3.421994,-3.134431 9.604587,-3.134431 5.866275,0 9.575831,2.329256 z m 37.987006,20.7045 q -0.316319,2.789356 -2.904381,5.664981 -4.025875,4.572244 -11.27245,4.572244 -5.9813,0 -10.553544,-3.853338 -4.572243,-3.853337 -4.572243,-12.537725 0,-8.138018 4.112143,-12.480212 4.1409,-4.342194 10.726082,-4.342194 3.91085,0 7.045281,1.466569 3.134431,1.466569 5.176125,4.629756 1.8404,2.789356 2.386768,6.470156 0.316319,2.156719 0.258807,6.21135 H 48.926782 q 0.172538,4.716025 2.961894,6.613938 1.696619,1.179006 4.083388,1.179006 2.53055,0 4.112143,-1.437813 0.862688,-0.776418 1.524082,-2.156718 z m -8.109262,-9.604588 q -0.201294,-3.249456 -1.984181,-4.917318 -1.754132,-1.696619 -4.37095,-1.696619 -2.846869,0 -4.428463,1.782887 -1.552837,1.782888 -1.955425,4.83105 z m 41.150195,-1.294031 h -8.396827 q -0.23005,-1.754131 -1.179006,-3.163187 -1.3803,-1.897913 -4.284681,-1.897913 -4.1409,0 -5.664981,4.112144 -0.805175,2.185475 -0.805175,5.808762 0,3.45075 0.805175,5.549956 1.466568,3.91085 5.5212,3.91085 2.875624,0 4.083387,-1.552837 1.207762,-1.552838 1.466569,-4.025875 h 8.368069 q -0.28756,3.738312 -2.70309,7.074037 -3.853336,5.377419 -11.416229,5.377419 -7.562894,0 -11.128669,-4.485975 -3.565775,-4.485975 -3.565775,-11.646281 0,-8.080506 3.939606,-12.566481 3.939607,-4.485975 10.869863,-4.485975 5.895031,0 9.633343,2.645575 3.767071,2.645575 4.457221,9.345781 z"
         id="path4" />
      <path
         style="fill:#ffffff"
         d="m 26.151833,92.091104 q -4.946075,0 -6.642694,3.2207 -0.948956,1.811643 -0.948956,5.578716 v 14.982 H 10.307139 V 84.52821 h 7.8217 v 5.463687 q 1.897913,-3.134431 3.306969,-4.284681 2.3005,-1.926669 5.9813,-1.926669 0.23005,0 0.373831,0.02876 0.172537,0 0.718906,0.02876 v 8.396825 q -0.776419,-0.08627 -1.3803,-0.115025 -0.603881,-0.02876 -0.977712,-0.02876 z m 33.989888,14.579416 q -0.316319,2.78936 -2.904382,5.66498 -4.025875,4.57225 -11.27245,4.57225 -5.981299,0 -10.553543,-3.85334 -4.572244,-3.85334 -4.572244,-12.53773 0,-8.138014 4.112144,-12.480208 4.1409,-4.342193 10.726081,-4.342193 3.91085,0 7.045281,1.466568 3.134431,1.466569 5.176125,4.629757 1.8404,2.789356 2.386769,6.470156 0.316319,2.156718 0.258806,6.21135 H 39.092146 q 0.172537,4.71602 2.961893,6.61394 1.696619,1.179 4.083388,1.179 2.53055,0 4.112144,-1.43781 0.862687,-0.77642 1.524081,-2.15672 z m -8.109263,-9.604585 q -0.201294,-3.249456 -1.984181,-4.917319 -1.754131,-1.696619 -4.37095,-1.696619 -2.846869,0 -4.428463,1.782888 -1.552837,1.782887 -1.955424,4.83105 z M 80.414877,110.035 v 6.12508 l -3.882094,0.14379 q -5.808763,0.20129 -7.936725,-2.01294 -1.3803,-1.40906 -1.3803,-4.3422 V 90.653291 h -4.37095 v -5.837519 h 4.37095 v -8.7419 h 8.109262 v 8.7419 h 5.089857 v 5.837519 H 75.32502 v 16.563599 q 0,1.92667 0.488857,2.41553 0.488856,0.4601 2.99065,0.4601 0.373831,0 0.776418,0 0.431344,-0.0288 0.833932,-0.0575 z M 107.27321,85.966022 q 3.6808,2.358013 4.22717,8.109263 h -8.19553 q -0.17254,-1.581594 -0.89145,-2.501794 -1.35154,-1.667862 -4.600995,-1.667862 -2.674332,0 -3.824582,0.833931 -1.121493,0.833931 -1.121493,1.955425 0,1.409056 1.207762,2.041694 1.207763,0.661393 8.540608,2.271743 4.88856,1.15025 7.33284,3.479508 2.41553,2.35801 2.41553,5.89503 0,4.65851 -3.47951,7.62041 -3.45075,2.93313 -10.697324,2.93313 -7.390356,0 -10.927375,-3.10567 -3.508263,-3.13443 -3.508263,-7.96548 h 8.310557 q 0.258806,2.18547 1.121493,3.10567 1.524082,1.63911 5.636225,1.63911 2.415527,0 3.824577,-0.71891 1.43782,-0.7189 1.43782,-2.15672 0,-1.3803 -1.15025,-2.0992 -1.15025,-0.71891 -8.540609,-2.47304 -5.319906,-1.32279 -7.505381,-3.306969 -2.185475,-1.955425 -2.185475,-5.636225 0,-4.342194 3.393237,-7.447869 3.421994,-3.134431 9.604588,-3.134431 5.86627,0 9.57583,2.329256 z m 11.01365,21.337138 H 127 v 8.56936 h -8.71314 z"
         id="path5" />
    </g>
  </g>
</svg>
